<svg width="30" height="30" viewBox="0 0 30 30" fill="none" xmlns="http://www.w3.org/2000/svg">
<g opacity="0.8">
<path d="M26.3356 4.81677H3.66444C1.64396 4.81677 0 6.46073 0 8.48121V21.5189C0 23.5394 1.64396 25.1833 3.66444 25.1833H26.3356C28.356 25.1833 30 23.5394 30 21.5189V8.48161C30.0004 6.46073 28.3564 4.81677 26.3356 4.81677ZM24.545 7.2074L15 13.3569L5.45502 7.2074H24.545ZM26.3356 22.7931H3.66444C2.96199 22.7931 2.39063 22.2213 2.39063 21.5193V8.54934L14.2625 16.1834C14.2784 16.1934 14.2956 16.2001 14.3119 16.2093C14.329 16.2189 14.3466 16.228 14.3641 16.2368C14.4561 16.2842 14.551 16.3225 14.6478 16.3476C14.6577 16.3504 14.6677 16.3516 14.6777 16.3539C14.784 16.379 14.8916 16.3946 14.9992 16.3946C14.9996 16.3946 15 16.3946 15 16.3946C15.0008 16.3946 15.0012 16.3946 15.0016 16.3946C15.1092 16.3946 15.2168 16.3794 15.3231 16.3539C15.3331 16.3516 15.3431 16.3504 15.353 16.3476C15.4498 16.3225 15.5443 16.2842 15.6367 16.2368C15.6542 16.228 15.6718 16.2189 15.6889 16.2093C15.7052 16.2001 15.7224 16.1934 15.7383 16.1834L27.6102 8.54934V21.5189C27.6098 22.2213 27.038 22.7931 26.3356 22.7931Z" fill="#BE4949"/>
</g>
</svg>
