<svg width="30" height="30" viewBox="0 0 30 30" fill="none" xmlns="http://www.w3.org/2000/svg">
<g opacity="0.8" clip-path="url(#clip0)">
<path d="M17.0485 14.91H15.856C15.931 14.5875 16.126 14.295 16.5235 14.295C16.831 14.295 17.0485 14.58 17.0485 14.91ZM30.001 15C30.001 23.2838 23.2848 30 15.001 30C6.71726 30 0.00100708 23.2838 0.00100708 15C0.00100708 6.71625 6.71726 0 15.001 0C23.2848 0 30.001 6.71625 30.001 15ZM7.77101 12.225C7.77101 12.5975 8.07351 12.9 8.44601 12.9C8.81851 12.9 9.12101 12.5975 9.12101 12.225C9.12101 11.8525 8.81851 11.55 8.44601 11.55C8.07351 11.55 7.77101 11.8525 7.77101 12.225ZM9.66851 16.5H9.14351V13.3425H6.06101V13.14C6.06101 12.7425 6.45851 12.735 6.66101 12.735C6.89351 12.735 6.99851 12.7575 6.99851 12.7575V11.6625C6.99851 11.6625 6.78851 11.6325 6.50351 11.6325C5.85851 11.6325 4.66601 11.8125 4.66601 13.1775V13.35H4.10351V14.3625H4.66601V16.5H4.14101V17.5125H6.67601V16.5H6.06101V14.3625H7.74851V16.5H7.22351V17.5125H9.66851V16.5ZM13.936 14.355H14.401V13.3425H12.1885V14.355H12.5635L12.0835 15.855C11.9935 16.1025 11.971 16.4025 11.971 16.4025H11.941C11.941 16.4025 11.9185 16.1025 11.8285 15.855L11.3485 14.355H11.7235V13.3425H9.51101V14.355H9.97601L11.131 17.505H12.781L13.936 14.355ZM18.496 15.255C18.496 14.1 17.7985 13.245 16.561 13.245C15.2185 13.245 14.3935 14.1975 14.3935 15.42C14.3935 16.53 15.196 17.6025 16.681 17.6025C17.806 17.6025 18.4735 17.0175 18.4735 17.0175L17.9635 16.05C17.9635 16.05 17.4085 16.4475 16.7935 16.4475C16.351 16.4475 15.931 16.215 15.826 15.6825H18.466C18.4585 15.675 18.496 15.39 18.496 15.255ZM22.216 13.29C22.216 13.29 22.1335 13.275 22.051 13.275C21.4135 13.2675 20.8885 13.7325 20.716 14.3025H20.701C20.701 14.3025 20.716 14.22 20.716 14.0925V13.875C20.716 13.4925 20.506 13.3425 20.1235 13.3425H18.811V14.355H19.201C19.3135 14.355 19.381 14.4225 19.381 14.535V16.5H18.8185V17.5125H21.346V16.5H20.7835V15.8925C20.7835 15.135 21.1585 14.64 21.931 14.64C22.1035 14.64 22.216 14.6625 22.216 14.6625V13.29ZM25.9135 14.6625V13.29C25.9135 13.29 25.831 13.275 25.7485 13.275C25.1185 13.2675 24.5935 13.7325 24.4135 14.3025H24.3985C24.3985 14.3025 24.4135 14.22 24.4135 14.0925V13.875C24.4135 13.4925 24.2035 13.3425 23.821 13.3425H22.5085V14.355H22.8985C23.011 14.355 23.0785 14.4225 23.0785 14.535V16.5H22.516V17.5125H25.0435V16.5H24.481V15.8925C24.481 15.135 24.856 14.64 25.6285 14.64C25.801 14.64 25.9135 14.6625 25.9135 14.6625Z" fill="#5B944C"/>
</g>
<defs>
<clipPath id="clip0">
<rect width="30" height="30" fill="white"/>
</clipPath>
</defs>
</svg>
