<svg width="277" height="487" viewBox="0 0 277 487" fill="none" xmlns="http://www.w3.org/2000/svg">
<g opacity="0.95">
<rect width="245" height="461" rx="50" fill="#C4C4C4"/>
<rect x="17.5" y="13.5" width="240" height="456" rx="47.5" stroke="#FFF8F8" stroke-width="5"/>
<rect x="32" y="26" width="245" height="461" rx="50" fill="#515050"/>
<g opacity="0.8">
<path opacity="0.9" d="M154.5 114C162.508 114 169 107.508 169 99.5C169 91.4919 162.508 85 154.5 85C146.492 85 140 91.4919 140 99.5C140 107.508 146.492 114 154.5 114Z" fill="white"/>
<g opacity="0.9">
<path d="M154.443 91.7969C155.746 91.5831 157.065 91.4808 158.386 91.491C159.984 91.3689 161.572 91.8364 162.849 92.8051C163.309 93.2257 163.672 93.7416 163.913 94.3167C164.153 94.8919 164.266 95.5125 164.242 96.1355C164.272 96.7556 164.178 97.3754 163.966 97.9589C163.754 98.5423 163.428 99.0778 163.007 99.534C162.354 100.141 161.585 100.608 160.746 100.908C159.906 101.208 159.015 101.334 158.125 101.279C157.57 101.295 157.016 101.25 156.471 101.143V107.509H154.443V91.7969ZM156.494 99.466C157.052 99.5859 157.622 99.6391 158.193 99.6246C160.674 99.6246 162.18 98.4238 162.18 96.2262C162.18 94.0285 160.696 93.1109 158.431 93.1109C157.781 93.0964 157.131 93.1534 156.494 93.2808V99.466Z" fill="#3D3D3D"/>
<path d="M144.758 98.9676H156.482V100.689H151.623V107.498H149.572V100.723H144.758V98.9676Z" fill="#3D3D3D"/>
</g>
</g>
<path d="M83.364 166.18C82.008 166.18 80.91 165.82 80.07 165.1C79.23 164.368 78.78 163.354 78.72 162.058L78.702 161.338L78.72 160.6C78.768 159.304 79.212 158.29 80.052 157.558C80.904 156.826 82.008 156.46 83.364 156.46C84.384 156.46 85.242 156.646 85.938 157.018C86.646 157.378 87.168 157.816 87.504 158.332C87.852 158.836 88.038 159.298 88.062 159.718C88.074 159.838 88.032 159.946 87.936 160.042C87.852 160.126 87.744 160.168 87.612 160.168H85.326C85.194 160.168 85.092 160.138 85.02 160.078C84.948 160.018 84.882 159.928 84.822 159.808C84.678 159.436 84.492 159.172 84.264 159.016C84.048 158.86 83.766 158.782 83.418 158.782C82.434 158.782 81.924 159.418 81.888 160.69L81.87 161.374L81.888 161.968C81.912 162.616 82.05 163.096 82.302 163.408C82.566 163.708 82.938 163.858 83.418 163.858C83.79 163.858 84.084 163.78 84.3 163.624C84.516 163.468 84.69 163.204 84.822 162.832C84.882 162.712 84.948 162.622 85.02 162.562C85.092 162.502 85.194 162.472 85.326 162.472H87.612C87.732 162.472 87.834 162.514 87.918 162.598C88.014 162.67 88.062 162.766 88.062 162.886C88.062 163.27 87.894 163.72 87.558 164.236C87.234 164.752 86.718 165.208 86.01 165.604C85.302 165.988 84.42 166.18 83.364 166.18ZM94.1972 166.18C93.1412 166.18 92.2892 165.826 91.6412 165.118C90.9932 164.398 90.6692 163.396 90.6692 162.112V157.09C90.6692 156.958 90.7112 156.85 90.7952 156.766C90.8792 156.682 90.9872 156.64 91.1192 156.64H93.3692C93.5012 156.64 93.6092 156.682 93.6932 156.766C93.7892 156.85 93.8372 156.958 93.8372 157.09V162.004C93.8372 163.18 94.3592 163.768 95.4032 163.768C95.9072 163.768 96.3032 163.612 96.5912 163.3C96.8792 162.988 97.0232 162.556 97.0232 162.004V157.09C97.0232 156.958 97.0652 156.85 97.1492 156.766C97.2452 156.682 97.3532 156.64 97.4732 156.64H99.7232C99.8552 156.64 99.9632 156.682 100.047 156.766C100.131 156.85 100.173 156.958 100.173 157.09V165.55C100.173 165.67 100.131 165.778 100.047 165.874C99.9632 165.958 99.8552 166 99.7232 166H97.6352C97.5152 166 97.4072 165.958 97.3112 165.874C97.2272 165.778 97.1852 165.67 97.1852 165.55V164.866C96.5612 165.742 95.5652 166.18 94.1972 166.18ZM103.82 166C103.688 166 103.58 165.958 103.496 165.874C103.412 165.79 103.37 165.682 103.37 165.55V157.09C103.37 156.958 103.412 156.85 103.496 156.766C103.58 156.682 103.688 156.64 103.82 156.64H105.89C106.022 156.64 106.13 156.688 106.214 156.784C106.31 156.868 106.358 156.97 106.358 157.09V157.81C107.018 157.03 107.906 156.64 109.022 156.64H109.814C109.946 156.64 110.054 156.682 110.138 156.766C110.222 156.85 110.264 156.958 110.264 157.09V158.944C110.264 159.064 110.222 159.172 110.138 159.268C110.054 159.352 109.946 159.394 109.814 159.394H108.068C107.576 159.394 107.192 159.532 106.916 159.808C106.652 160.072 106.52 160.45 106.52 160.942V165.55C106.52 165.682 106.472 165.79 106.376 165.874C106.292 165.958 106.184 166 106.052 166H103.82ZM113.074 166C112.942 166 112.834 165.958 112.75 165.874C112.666 165.79 112.624 165.682 112.624 165.55V157.09C112.624 156.958 112.666 156.85 112.75 156.766C112.834 156.682 112.942 156.64 113.074 156.64H115.144C115.276 156.64 115.384 156.688 115.468 156.784C115.564 156.868 115.612 156.97 115.612 157.09V157.81C116.272 157.03 117.16 156.64 118.276 156.64H119.068C119.2 156.64 119.308 156.682 119.392 156.766C119.476 156.85 119.518 156.958 119.518 157.09V158.944C119.518 159.064 119.476 159.172 119.392 159.268C119.308 159.352 119.2 159.394 119.068 159.394H117.322C116.83 159.394 116.446 159.532 116.17 159.808C115.906 160.072 115.774 160.45 115.774 160.942V165.55C115.774 165.682 115.726 165.79 115.63 165.874C115.546 165.958 115.438 166 115.306 166H113.074ZM122.31 155.29C122.178 155.29 122.07 155.248 121.986 155.164C121.902 155.08 121.86 154.972 121.86 154.84V153.22C121.86 153.088 121.902 152.98 121.986 152.896C122.07 152.812 122.178 152.77 122.31 152.77H124.47C124.602 152.77 124.71 152.812 124.794 152.896C124.878 152.98 124.92 153.088 124.92 153.22V154.84C124.92 154.972 124.878 155.08 124.794 155.164C124.71 155.248 124.602 155.29 124.47 155.29H122.31ZM122.328 166C122.196 166 122.088 165.958 122.004 165.874C121.92 165.79 121.878 165.682 121.878 165.55V157.09C121.878 156.958 121.92 156.85 122.004 156.766C122.088 156.682 122.196 156.64 122.328 156.64H124.452C124.584 156.64 124.692 156.682 124.776 156.766C124.86 156.85 124.902 156.958 124.902 157.09V165.55C124.902 165.67 124.86 165.778 124.776 165.874C124.692 165.958 124.584 166 124.452 166H122.328ZM132.41 166.18C131.054 166.18 129.956 165.82 129.116 165.1C128.276 164.368 127.826 163.354 127.766 162.058L127.748 161.338L127.766 160.6C127.814 159.304 128.258 158.29 129.098 157.558C129.95 156.826 131.054 156.46 132.41 156.46C133.43 156.46 134.288 156.646 134.984 157.018C135.692 157.378 136.214 157.816 136.55 158.332C136.898 158.836 137.084 159.298 137.108 159.718C137.12 159.838 137.078 159.946 136.982 160.042C136.898 160.126 136.79 160.168 136.658 160.168H134.372C134.24 160.168 134.138 160.138 134.066 160.078C133.994 160.018 133.928 159.928 133.868 159.808C133.724 159.436 133.538 159.172 133.31 159.016C133.094 158.86 132.812 158.782 132.464 158.782C131.48 158.782 130.97 159.418 130.934 160.69L130.916 161.374L130.934 161.968C130.958 162.616 131.096 163.096 131.348 163.408C131.612 163.708 131.984 163.858 132.464 163.858C132.836 163.858 133.13 163.78 133.346 163.624C133.562 163.468 133.736 163.204 133.868 162.832C133.928 162.712 133.994 162.622 134.066 162.562C134.138 162.502 134.24 162.472 134.372 162.472H136.658C136.778 162.472 136.88 162.514 136.964 162.598C137.06 162.67 137.108 162.766 137.108 162.886C137.108 163.27 136.94 163.72 136.604 164.236C136.28 164.752 135.764 165.208 135.056 165.604C134.348 165.988 133.466 166.18 132.41 166.18ZM143.244 166.18C142.188 166.18 141.336 165.826 140.688 165.118C140.04 164.398 139.716 163.396 139.716 162.112V157.09C139.716 156.958 139.758 156.85 139.842 156.766C139.926 156.682 140.034 156.64 140.166 156.64H142.416C142.548 156.64 142.656 156.682 142.74 156.766C142.836 156.85 142.884 156.958 142.884 157.09V162.004C142.884 163.18 143.406 163.768 144.45 163.768C144.954 163.768 145.35 163.612 145.638 163.3C145.926 162.988 146.07 162.556 146.07 162.004V157.09C146.07 156.958 146.112 156.85 146.196 156.766C146.292 156.682 146.4 156.64 146.52 156.64H148.77C148.902 156.64 149.01 156.682 149.094 156.766C149.178 156.85 149.22 156.958 149.22 157.09V165.55C149.22 165.67 149.178 165.778 149.094 165.874C149.01 165.958 148.902 166 148.77 166H146.682C146.562 166 146.454 165.958 146.358 165.874C146.274 165.778 146.232 165.67 146.232 165.55V164.866C145.608 165.742 144.612 166.18 143.244 166.18ZM152.867 166C152.747 166 152.639 165.958 152.543 165.874C152.459 165.778 152.417 165.67 152.417 165.55V153.67C152.417 153.538 152.459 153.43 152.543 153.346C152.639 153.262 152.747 153.22 152.867 153.22H154.991C155.123 153.22 155.231 153.262 155.315 153.346C155.399 153.43 155.441 153.538 155.441 153.67V165.55C155.441 165.682 155.399 165.79 155.315 165.874C155.231 165.958 155.123 166 154.991 166H152.867ZM162.085 166.18C161.029 166.18 160.177 165.826 159.529 165.118C158.881 164.398 158.557 163.396 158.557 162.112V157.09C158.557 156.958 158.599 156.85 158.683 156.766C158.767 156.682 158.875 156.64 159.007 156.64H161.257C161.389 156.64 161.497 156.682 161.581 156.766C161.677 156.85 161.725 156.958 161.725 157.09V162.004C161.725 163.18 162.247 163.768 163.291 163.768C163.795 163.768 164.191 163.612 164.479 163.3C164.767 162.988 164.911 162.556 164.911 162.004V157.09C164.911 156.958 164.953 156.85 165.037 156.766C165.133 156.682 165.241 156.64 165.361 156.64H167.611C167.743 156.64 167.851 156.682 167.935 156.766C168.019 156.85 168.061 156.958 168.061 157.09V165.55C168.061 165.67 168.019 165.778 167.935 165.874C167.851 165.958 167.743 166 167.611 166H165.523C165.403 166 165.295 165.958 165.199 165.874C165.115 165.778 165.073 165.67 165.073 165.55V164.866C164.449 165.742 163.453 166.18 162.085 166.18ZM171.709 166C171.577 166 171.469 165.958 171.385 165.874C171.301 165.79 171.259 165.682 171.259 165.55V157.09C171.259 156.958 171.301 156.85 171.385 156.766C171.469 156.682 171.577 156.64 171.709 156.64H173.671C173.803 156.64 173.911 156.682 173.995 156.766C174.079 156.85 174.121 156.958 174.121 157.09V157.702C174.397 157.342 174.763 157.048 175.219 156.82C175.687 156.58 176.209 156.46 176.785 156.46C178.105 156.46 179.017 156.976 179.521 158.008C179.809 157.552 180.211 157.18 180.727 156.892C181.243 156.604 181.795 156.46 182.383 156.46C183.367 156.46 184.165 156.796 184.777 157.468C185.401 158.128 185.713 159.118 185.713 160.438V165.55C185.713 165.67 185.671 165.778 185.587 165.874C185.503 165.958 185.395 166 185.263 166H183.175C183.043 166 182.929 165.958 182.833 165.874C182.749 165.79 182.707 165.682 182.707 165.55V160.564C182.707 159.964 182.581 159.532 182.329 159.268C182.089 159.004 181.759 158.872 181.339 158.872C180.955 158.872 180.637 159.01 180.385 159.286C180.133 159.55 180.007 159.976 180.007 160.564V165.55C180.007 165.67 179.965 165.778 179.881 165.874C179.797 165.958 179.689 166 179.557 166H177.469C177.337 166 177.229 165.958 177.145 165.874C177.061 165.79 177.019 165.682 177.019 165.55V160.564C177.019 159.976 176.887 159.55 176.623 159.286C176.371 159.01 176.047 158.872 175.651 158.872C175.267 158.872 174.943 159.01 174.679 159.286C174.427 159.55 174.301 159.97 174.301 160.546V165.55C174.301 165.67 174.259 165.778 174.175 165.874C174.091 165.958 173.983 166 173.851 166H171.709ZM196.612 166C196.444 166 196.312 165.964 196.216 165.892C196.132 165.808 196.06 165.694 196 165.55L192.598 157.198L192.562 157.036C192.562 156.928 192.598 156.838 192.67 156.766C192.754 156.682 192.856 156.64 192.976 156.64H195.01C195.274 156.64 195.448 156.766 195.532 157.018L197.566 162.544L199.618 157.018C199.702 156.766 199.876 156.64 200.14 156.64H202.174C202.282 156.64 202.378 156.682 202.462 156.766C202.546 156.838 202.588 156.928 202.588 157.036L202.552 157.198L199.15 165.55C199.09 165.694 199.012 165.808 198.916 165.892C198.82 165.964 198.688 166 198.52 166H196.612ZM205.499 155.29C205.367 155.29 205.259 155.248 205.175 155.164C205.091 155.08 205.049 154.972 205.049 154.84V153.22C205.049 153.088 205.091 152.98 205.175 152.896C205.259 152.812 205.367 152.77 205.499 152.77H207.659C207.791 152.77 207.899 152.812 207.983 152.896C208.067 152.98 208.109 153.088 208.109 153.22V154.84C208.109 154.972 208.067 155.08 207.983 155.164C207.899 155.248 207.791 155.29 207.659 155.29H205.499ZM205.517 166C205.385 166 205.277 165.958 205.193 165.874C205.109 165.79 205.067 165.682 205.067 165.55V157.09C205.067 156.958 205.109 156.85 205.193 156.766C205.277 156.682 205.385 156.64 205.517 156.64H207.641C207.773 156.64 207.881 156.682 207.965 156.766C208.049 156.85 208.091 156.958 208.091 157.09V165.55C208.091 165.67 208.049 165.778 207.965 165.874C207.881 165.958 207.773 166 207.641 166H205.517ZM216.085 166C213.601 166 212.359 164.818 212.359 162.454V158.998H210.955C210.823 158.998 210.709 158.956 210.613 158.872C210.529 158.788 210.487 158.68 210.487 158.548V157.09C210.487 156.958 210.529 156.85 210.613 156.766C210.709 156.682 210.823 156.64 210.955 156.64H212.359V153.67C212.359 153.538 212.401 153.43 212.485 153.346C212.581 153.262 212.689 153.22 212.809 153.22H214.897C215.029 153.22 215.137 153.262 215.221 153.346C215.305 153.43 215.347 153.538 215.347 153.67V156.64H217.597C217.729 156.64 217.837 156.682 217.921 156.766C218.017 156.85 218.065 156.958 218.065 157.09V158.548C218.065 158.68 218.017 158.788 217.921 158.872C217.837 158.956 217.729 158.998 217.597 158.998H215.347V162.202C215.347 163.09 215.689 163.534 216.373 163.534H217.759C217.891 163.534 217.999 163.576 218.083 163.66C218.167 163.744 218.209 163.852 218.209 163.984V165.55C218.209 165.67 218.167 165.778 218.083 165.874C217.999 165.958 217.891 166 217.759 166H216.085ZM223.588 166.18C222.952 166.18 222.37 166.06 221.842 165.82C221.326 165.568 220.918 165.232 220.618 164.812C220.33 164.38 220.186 163.906 220.186 163.39C220.186 162.562 220.522 161.896 221.194 161.392C221.878 160.888 222.814 160.54 224.002 160.348L226.252 160.006V159.754C226.252 159.298 226.156 158.962 225.964 158.746C225.772 158.53 225.448 158.422 224.992 158.422C224.716 158.422 224.488 158.47 224.308 158.566C224.128 158.662 223.942 158.794 223.75 158.962C223.582 159.106 223.456 159.202 223.372 159.25C223.336 159.346 223.27 159.394 223.174 159.394H221.212C221.092 159.394 220.99 159.358 220.906 159.286C220.834 159.202 220.804 159.106 220.816 158.998C220.828 158.674 220.984 158.314 221.284 157.918C221.596 157.522 222.064 157.18 222.688 156.892C223.324 156.604 224.104 156.46 225.028 156.46C226.504 156.46 227.596 156.79 228.304 157.45C229.012 158.098 229.366 158.974 229.366 160.078V165.55C229.366 165.67 229.324 165.778 229.24 165.874C229.156 165.958 229.048 166 228.916 166H226.828C226.708 166 226.6 165.958 226.504 165.874C226.42 165.778 226.378 165.67 226.378 165.55V164.92C226.114 165.292 225.742 165.598 225.262 165.838C224.794 166.066 224.236 166.18 223.588 166.18ZM224.434 164.128C224.986 164.128 225.43 163.948 225.766 163.588C226.114 163.228 226.288 162.7 226.288 162.004V161.752L224.758 162.022C223.678 162.214 223.138 162.592 223.138 163.156C223.138 163.456 223.264 163.696 223.516 163.876C223.768 164.044 224.074 164.128 224.434 164.128ZM236.797 166.18C235.357 166.18 234.223 165.79 233.395 165.01C232.567 164.23 232.135 163.096 232.099 161.608V160.978C232.147 159.562 232.585 158.458 233.413 157.666C234.253 156.862 235.375 156.46 236.779 156.46C237.799 156.46 238.657 156.67 239.353 157.09C240.061 157.498 240.589 158.062 240.937 158.782C241.297 159.502 241.477 160.33 241.477 161.266V161.698C241.477 161.818 241.435 161.926 241.351 162.022C241.267 162.106 241.159 162.148 241.027 162.148H235.267V162.274C235.291 162.838 235.429 163.294 235.681 163.642C235.933 163.99 236.299 164.164 236.779 164.164C237.079 164.164 237.325 164.104 237.517 163.984C237.709 163.852 237.883 163.696 238.039 163.516C238.147 163.384 238.231 163.306 238.291 163.282C238.363 163.246 238.471 163.228 238.615 163.228H240.847C240.955 163.228 241.045 163.264 241.117 163.336C241.201 163.396 241.243 163.48 241.243 163.588C241.243 163.9 241.063 164.26 240.703 164.668C240.355 165.076 239.845 165.43 239.173 165.73C238.501 166.03 237.709 166.18 236.797 166.18ZM238.309 160.366V160.33C238.309 159.742 238.171 159.28 237.895 158.944C237.631 158.596 237.259 158.422 236.779 158.422C236.311 158.422 235.939 158.596 235.663 158.944C235.399 159.28 235.267 159.742 235.267 160.33V160.366H238.309Z" fill="#E5E5E5"/>
<path d="M130.197 212.864C130.101 212.864 129.973 212.811 129.813 212.704L124.773 209.232C124.613 209.115 124.495 209.003 124.421 208.896C124.346 208.789 124.309 208.661 124.309 208.512V208.24C124.309 208.091 124.341 207.963 124.405 207.856C124.479 207.749 124.602 207.632 124.773 207.504L129.813 204.048C129.973 203.941 130.101 203.888 130.197 203.888C130.293 203.888 130.367 203.92 130.421 203.984C130.485 204.037 130.517 204.112 130.517 204.208V204.912C130.517 205.029 130.485 205.125 130.421 205.2C130.367 205.275 130.277 205.355 130.149 205.44L125.861 208.368L130.149 211.296C130.287 211.392 130.383 211.477 130.437 211.552C130.49 211.627 130.517 211.723 130.517 211.84V212.544C130.517 212.64 130.485 212.72 130.421 212.784C130.367 212.837 130.293 212.864 130.197 212.864ZM134.136 214C134.029 214 133.938 213.968 133.864 213.904C133.8 213.829 133.768 213.739 133.768 213.632V203.008C133.768 202.901 133.8 202.816 133.864 202.752C133.938 202.677 134.029 202.64 134.136 202.64H134.936C135.042 202.64 135.128 202.677 135.192 202.752C135.266 202.816 135.304 202.901 135.304 203.008V206.736C135.613 206.341 135.976 206.043 136.392 205.84C136.808 205.627 137.325 205.52 137.944 205.52C138.968 205.52 139.762 205.851 140.328 206.512C140.904 207.163 141.192 208.032 141.192 209.12V213.632C141.192 213.739 141.154 213.829 141.08 213.904C141.016 213.968 140.93 214 140.824 214H140.024C139.917 214 139.826 213.968 139.752 213.904C139.688 213.829 139.656 213.739 139.656 213.632V209.2C139.656 208.443 139.469 207.856 139.096 207.44C138.733 207.024 138.205 206.816 137.512 206.816C136.84 206.816 136.301 207.029 135.896 207.456C135.501 207.872 135.304 208.453 135.304 209.2V213.632C135.304 213.739 135.266 213.829 135.192 213.904C135.128 213.968 135.042 214 134.936 214H134.136ZM147.6 214C145.915 214 145.072 213.061 145.072 211.184V206.96H143.824C143.718 206.96 143.627 206.928 143.552 206.864C143.488 206.789 143.456 206.699 143.456 206.592V206.048C143.456 205.941 143.488 205.856 143.552 205.792C143.627 205.717 143.718 205.68 143.824 205.68H145.072V203.008C145.072 202.901 145.104 202.816 145.168 202.752C145.243 202.677 145.334 202.64 145.44 202.64H146.192C146.299 202.64 146.384 202.677 146.448 202.752C146.523 202.816 146.56 202.901 146.56 203.008V205.68H148.544C148.651 205.68 148.736 205.717 148.8 205.792C148.875 205.856 148.912 205.941 148.912 206.048V206.592C148.912 206.699 148.875 206.789 148.8 206.864C148.736 206.928 148.651 206.96 148.544 206.96H146.56V211.072C146.56 211.605 146.651 212.011 146.832 212.288C147.014 212.555 147.312 212.688 147.728 212.688H148.704C148.811 212.688 148.896 212.725 148.96 212.8C149.035 212.864 149.072 212.949 149.072 213.056V213.632C149.072 213.739 149.035 213.829 148.96 213.904C148.896 213.968 148.811 214 148.704 214H147.6ZM151.93 214C151.824 214 151.733 213.968 151.658 213.904C151.594 213.829 151.562 213.739 151.562 213.632V206.048C151.562 205.941 151.594 205.856 151.658 205.792C151.733 205.717 151.824 205.68 151.93 205.68H152.65C152.757 205.68 152.842 205.717 152.906 205.792C152.981 205.856 153.018 205.941 153.018 206.048V206.608C153.573 205.883 154.346 205.52 155.338 205.52C156.522 205.52 157.36 206.011 157.85 206.992C158.106 206.544 158.469 206.187 158.938 205.92C159.408 205.653 159.936 205.52 160.522 205.52C161.397 205.52 162.112 205.819 162.666 206.416C163.221 207.013 163.498 207.877 163.498 209.008V213.632C163.498 213.739 163.461 213.829 163.386 213.904C163.322 213.968 163.237 214 163.13 214H162.378C162.272 214 162.181 213.968 162.106 213.904C162.042 213.829 162.01 213.739 162.01 213.632V209.152C162.01 208.32 161.834 207.723 161.482 207.36C161.141 206.997 160.688 206.816 160.122 206.816C159.621 206.816 159.189 207.003 158.826 207.376C158.464 207.739 158.282 208.331 158.282 209.152V213.632C158.282 213.739 158.245 213.829 158.17 213.904C158.106 213.968 158.021 214 157.914 214H157.162C157.056 214 156.965 213.968 156.89 213.904C156.826 213.829 156.794 213.739 156.794 213.632V209.152C156.794 208.32 156.613 207.723 156.25 207.36C155.898 206.997 155.45 206.816 154.906 206.816C154.405 206.816 153.973 207.003 153.61 207.376C153.248 207.739 153.066 208.325 153.066 209.136V213.632C153.066 213.739 153.029 213.829 152.954 213.904C152.89 213.968 152.805 214 152.698 214H151.93ZM167.125 214C167.019 214 166.928 213.968 166.853 213.904C166.789 213.829 166.757 213.739 166.757 213.632V203.008C166.757 202.901 166.789 202.816 166.853 202.752C166.928 202.677 167.019 202.64 167.125 202.64H167.877C167.984 202.64 168.069 202.677 168.133 202.752C168.208 202.816 168.245 202.901 168.245 203.008V213.632C168.245 213.739 168.208 213.829 168.133 213.904C168.069 213.968 167.984 214 167.877 214H167.125ZM171.816 212.864C171.72 212.864 171.64 212.837 171.576 212.784C171.522 212.72 171.496 212.64 171.496 212.544V211.84C171.496 211.723 171.522 211.627 171.576 211.552C171.629 211.477 171.725 211.392 171.864 211.296L176.136 208.368L171.864 205.44C171.725 205.355 171.629 205.275 171.576 205.2C171.522 205.125 171.496 205.029 171.496 204.912V204.208C171.496 204.112 171.522 204.037 171.576 203.984C171.64 203.92 171.72 203.888 171.816 203.888C171.912 203.888 172.04 203.941 172.2 204.048L177.24 207.504C177.41 207.632 177.528 207.749 177.592 207.856C177.666 207.963 177.704 208.091 177.704 208.24V208.512C177.704 208.661 177.666 208.789 177.592 208.896C177.517 209.003 177.4 209.115 177.24 209.232L172.2 212.704C172.04 212.811 171.912 212.864 171.816 212.864ZM128.673 239.864C128.577 239.864 128.449 239.811 128.289 239.704L123.249 236.232C123.089 236.115 122.972 236.003 122.897 235.896C122.823 235.789 122.785 235.661 122.785 235.512V235.24C122.785 235.091 122.817 234.963 122.881 234.856C122.956 234.749 123.079 234.632 123.249 234.504L128.289 231.048C128.449 230.941 128.577 230.888 128.673 230.888C128.769 230.888 128.844 230.92 128.897 230.984C128.961 231.037 128.993 231.112 128.993 231.208V231.912C128.993 232.029 128.961 232.125 128.897 232.2C128.844 232.275 128.753 232.355 128.625 232.44L124.337 235.368L128.625 238.296C128.764 238.392 128.86 238.477 128.913 238.552C128.967 238.627 128.993 238.723 128.993 238.84V239.544C128.993 239.64 128.961 239.72 128.897 239.784C128.844 239.837 128.769 239.864 128.673 239.864ZM136.34 241.16C135.188 241.16 134.314 240.76 133.716 239.96V240.632C133.716 240.739 133.679 240.829 133.604 240.904C133.54 240.968 133.455 241 133.348 241H132.612C132.506 241 132.415 240.968 132.34 240.904C132.276 240.829 132.244 240.739 132.244 240.632V230.008C132.244 229.901 132.276 229.816 132.34 229.752C132.415 229.677 132.506 229.64 132.612 229.64H133.396C133.503 229.64 133.588 229.677 133.652 229.752C133.716 229.816 133.748 229.901 133.748 230.008V233.688C134.378 232.909 135.242 232.52 136.34 232.52C137.45 232.52 138.287 232.888 138.852 233.624C139.418 234.349 139.722 235.261 139.764 236.36C139.775 236.477 139.78 236.637 139.78 236.84C139.78 237.043 139.775 237.203 139.764 237.32C139.722 238.429 139.418 239.347 138.852 240.072C138.287 240.797 137.45 241.16 136.34 241.16ZM136.004 239.864C136.762 239.864 137.311 239.629 137.652 239.16C138.004 238.691 138.196 238.072 138.228 237.304C138.239 237.197 138.244 237.043 138.244 236.84C138.244 234.824 137.498 233.816 136.004 233.816C135.29 233.816 134.74 234.051 134.356 234.52C133.972 234.989 133.77 235.539 133.748 236.168L133.732 236.792L133.748 237.4C133.78 238.072 133.978 238.653 134.34 239.144C134.714 239.624 135.268 239.864 136.004 239.864ZM146.112 241.16C144.939 241.16 144.027 240.829 143.376 240.168C142.736 239.507 142.395 238.627 142.352 237.528L142.336 236.84L142.352 236.152C142.395 235.064 142.741 234.189 143.392 233.528C144.043 232.856 144.949 232.52 146.112 232.52C147.275 232.52 148.181 232.856 148.832 233.528C149.483 234.189 149.829 235.064 149.872 236.152C149.883 236.269 149.888 236.499 149.888 236.84C149.888 237.181 149.883 237.411 149.872 237.528C149.829 238.627 149.483 239.507 148.832 240.168C148.192 240.829 147.285 241.16 146.112 241.16ZM146.112 239.928C146.784 239.928 147.312 239.715 147.696 239.288C148.091 238.861 148.304 238.248 148.336 237.448C148.347 237.341 148.352 237.139 148.352 236.84C148.352 236.541 148.347 236.339 148.336 236.232C148.304 235.432 148.091 234.819 147.696 234.392C147.312 233.965 146.784 233.752 146.112 233.752C145.44 233.752 144.907 233.965 144.512 234.392C144.117 234.819 143.909 235.432 143.888 236.232L143.872 236.84L143.888 237.448C143.909 238.248 144.117 238.861 144.512 239.288C144.907 239.715 145.44 239.928 146.112 239.928ZM155.891 241.16C154.782 241.16 153.945 240.797 153.379 240.072C152.814 239.347 152.515 238.429 152.483 237.32L152.467 236.84L152.483 236.36C152.515 235.261 152.814 234.349 153.379 233.624C153.945 232.888 154.782 232.52 155.891 232.52C156.99 232.52 157.854 232.909 158.483 233.688V230.008C158.483 229.901 158.515 229.816 158.579 229.752C158.654 229.677 158.745 229.64 158.851 229.64H159.619C159.726 229.64 159.811 229.677 159.875 229.752C159.95 229.816 159.987 229.901 159.987 230.008V240.632C159.987 240.739 159.95 240.829 159.875 240.904C159.811 240.968 159.726 241 159.619 241H158.899C158.793 241 158.702 240.968 158.627 240.904C158.563 240.829 158.531 240.739 158.531 240.632V239.96C157.913 240.76 157.033 241.16 155.891 241.16ZM156.227 239.864C156.963 239.864 157.513 239.624 157.875 239.144C158.249 238.653 158.451 238.072 158.483 237.4C158.494 237.283 158.499 237.08 158.499 236.792C158.499 236.493 158.494 236.285 158.483 236.168C158.462 235.539 158.259 234.989 157.875 234.52C157.491 234.051 156.942 233.816 156.227 233.816C155.47 233.816 154.915 234.051 154.563 234.52C154.222 234.989 154.035 235.608 154.003 236.376L153.987 236.84C153.987 238.856 154.734 239.864 156.227 239.864ZM164.783 244.04C164.698 244.04 164.623 244.008 164.559 243.944C164.495 243.88 164.463 243.805 164.463 243.72C164.463 243.645 164.49 243.549 164.543 243.432L165.775 240.504L162.719 233.288C162.666 233.149 162.639 233.059 162.639 233.016C162.639 232.92 162.671 232.84 162.735 232.776C162.799 232.712 162.879 232.68 162.975 232.68H163.759C163.93 232.68 164.058 232.771 164.143 232.952L166.575 238.776L169.071 232.952C169.156 232.771 169.29 232.68 169.471 232.68H170.223C170.319 232.68 170.399 232.712 170.463 232.776C170.527 232.84 170.559 232.915 170.559 233C170.559 233.032 170.532 233.128 170.479 233.288L165.935 243.768C165.85 243.949 165.716 244.04 165.535 244.04H164.783ZM173.339 239.864C173.243 239.864 173.163 239.837 173.099 239.784C173.046 239.72 173.019 239.64 173.019 239.544V238.84C173.019 238.723 173.046 238.627 173.099 238.552C173.153 238.477 173.249 238.392 173.387 238.296L177.659 235.368L173.387 232.44C173.249 232.355 173.153 232.275 173.099 232.2C173.046 232.125 173.019 232.029 173.019 231.912V231.208C173.019 231.112 173.046 231.037 173.099 230.984C173.163 230.92 173.243 230.888 173.339 230.888C173.435 230.888 173.563 230.941 173.723 231.048L178.763 234.504C178.934 234.632 179.051 234.749 179.115 234.856C179.19 234.963 179.227 235.091 179.227 235.24V235.512C179.227 235.661 179.19 235.789 179.115 235.896C179.041 236.003 178.923 236.115 178.763 236.232L173.723 239.704C173.563 239.811 173.435 239.864 173.339 239.864ZM88.8777 266.864C88.7817 266.864 88.6537 266.811 88.4938 266.704L83.4537 263.232C83.2937 263.115 83.1764 263.003 83.1017 262.896C83.0271 262.789 82.9897 262.661 82.9897 262.512V262.24C82.9897 262.091 83.0217 261.963 83.0857 261.856C83.1604 261.749 83.2831 261.632 83.4537 261.504L88.4938 258.048C88.6537 257.941 88.7817 257.888 88.8777 257.888C88.9737 257.888 89.0484 257.92 89.1017 257.984C89.1658 258.037 89.1978 258.112 89.1978 258.208V258.912C89.1978 259.029 89.1658 259.125 89.1017 259.2C89.0484 259.275 88.9578 259.355 88.8298 259.44L84.5417 262.368L88.8298 265.296C88.9684 265.392 89.0644 265.477 89.1178 265.552C89.1711 265.627 89.1978 265.723 89.1978 265.84V266.544C89.1978 266.64 89.1658 266.72 89.1017 266.784C89.0484 266.837 88.9737 266.864 88.8777 266.864ZM92.8167 271.04C92.7101 271.04 92.6194 271.003 92.5447 270.928C92.4807 270.864 92.4487 270.779 92.4487 270.672V260.048C92.4487 259.941 92.4807 259.856 92.5447 259.792C92.6194 259.717 92.7101 259.68 92.8167 259.68H93.5527C93.6594 259.68 93.7447 259.717 93.8087 259.792C93.8834 259.856 93.9207 259.941 93.9207 260.048V260.752C94.5181 259.931 95.3927 259.52 96.5447 259.52C97.6647 259.52 98.5021 259.872 99.0567 260.576C99.6221 261.28 99.9261 262.187 99.9687 263.296C99.9794 263.413 99.9847 263.595 99.9847 263.84C99.9847 264.085 99.9794 264.267 99.9687 264.384C99.9261 265.483 99.6221 266.389 99.0567 267.104C98.4914 267.808 97.6541 268.16 96.5447 268.16C95.4354 268.16 94.5714 267.76 93.9527 266.96V270.672C93.9527 270.779 93.9207 270.864 93.8567 270.928C93.7927 271.003 93.7074 271.04 93.6007 271.04H92.8167ZM96.2087 266.864C96.9661 266.864 97.5154 266.629 97.8567 266.16C98.2087 265.691 98.4007 265.072 98.4327 264.304C98.4434 264.197 98.4487 264.043 98.4487 263.84C98.4487 261.824 97.7021 260.816 96.2087 260.816C95.4727 260.816 94.9181 261.061 94.5447 261.552C94.1821 262.032 93.9847 262.608 93.9527 263.28L93.9367 263.888L93.9527 264.512C93.9741 265.141 94.1767 265.691 94.5607 266.16C94.9447 266.629 95.4941 266.864 96.2087 266.864ZM103.148 266.864C103.052 266.864 102.972 266.837 102.908 266.784C102.855 266.72 102.828 266.64 102.828 266.544V265.84C102.828 265.723 102.855 265.627 102.908 265.552C102.961 265.477 103.057 265.392 103.196 265.296L107.468 262.368L103.196 259.44C103.057 259.355 102.961 259.275 102.908 259.2C102.855 259.125 102.828 259.029 102.828 258.912V258.208C102.828 258.112 102.855 258.037 102.908 257.984C102.972 257.92 103.052 257.888 103.148 257.888C103.244 257.888 103.372 257.941 103.532 258.048L108.572 261.504C108.743 261.632 108.86 261.749 108.924 261.856C108.999 261.963 109.036 262.091 109.036 262.24V262.512C109.036 262.661 108.999 262.789 108.924 262.896C108.849 263.003 108.732 263.115 108.572 263.232L103.532 266.704C103.372 266.811 103.244 266.864 103.148 266.864ZM139.813 293.864C139.717 293.864 139.589 293.811 139.429 293.704L134.389 290.232C134.229 290.115 134.112 290.003 134.037 289.896C133.962 289.789 133.925 289.661 133.925 289.512V289.24C133.925 289.091 133.957 288.963 134.021 288.856C134.096 288.749 134.218 288.632 134.389 288.504L139.429 285.048C139.589 284.941 139.717 284.888 139.813 284.888C139.909 284.888 139.984 284.92 140.037 284.984C140.101 285.037 140.133 285.112 140.133 285.208V285.912C140.133 286.029 140.101 286.125 140.037 286.2C139.984 286.275 139.893 286.355 139.765 286.44L135.477 289.368L139.765 292.296C139.904 292.392 140 292.477 140.053 292.552C140.106 292.627 140.133 292.723 140.133 292.84V293.544C140.133 293.64 140.101 293.72 140.037 293.784C139.984 293.837 139.909 293.864 139.813 293.864ZM142.92 296.344C142.835 296.344 142.76 296.312 142.696 296.248C142.632 296.184 142.6 296.109 142.6 296.024C142.6 295.981 142.616 295.917 142.648 295.832L148.12 282.712C148.205 282.52 148.344 282.424 148.536 282.424H149.16C149.245 282.424 149.32 282.456 149.384 282.52C149.448 282.584 149.48 282.659 149.48 282.744C149.48 282.819 149.469 282.883 149.448 282.936L143.96 296.056C143.875 296.248 143.736 296.344 143.544 296.344H142.92ZM151.868 298.04C151.762 298.04 151.671 298.003 151.596 297.928C151.532 297.864 151.5 297.779 151.5 297.672V287.048C151.5 286.941 151.532 286.856 151.596 286.792C151.671 286.717 151.762 286.68 151.868 286.68H152.604C152.711 286.68 152.796 286.717 152.86 286.792C152.935 286.856 152.972 286.941 152.972 287.048V287.752C153.57 286.931 154.444 286.52 155.596 286.52C156.716 286.52 157.554 286.872 158.108 287.576C158.674 288.28 158.978 289.187 159.02 290.296C159.031 290.413 159.036 290.595 159.036 290.84C159.036 291.085 159.031 291.267 159.02 291.384C158.978 292.483 158.674 293.389 158.108 294.104C157.543 294.808 156.706 295.16 155.596 295.16C154.487 295.16 153.623 294.76 153.004 293.96V297.672C153.004 297.779 152.972 297.864 152.908 297.928C152.844 298.003 152.759 298.04 152.652 298.04H151.868ZM155.26 293.864C156.018 293.864 156.567 293.629 156.908 293.16C157.26 292.691 157.452 292.072 157.484 291.304C157.495 291.197 157.5 291.043 157.5 290.84C157.5 288.824 156.754 287.816 155.26 287.816C154.524 287.816 153.97 288.061 153.596 288.552C153.234 289.032 153.036 289.608 153.004 290.28L152.988 290.888L153.004 291.512C153.026 292.141 153.228 292.691 153.612 293.16C153.996 293.629 154.546 293.864 155.26 293.864ZM162.2 293.864C162.104 293.864 162.024 293.837 161.96 293.784C161.906 293.72 161.88 293.64 161.88 293.544V292.84C161.88 292.723 161.906 292.627 161.96 292.552C162.013 292.477 162.109 292.392 162.248 292.296L166.52 289.368L162.248 286.44C162.109 286.355 162.013 286.275 161.96 286.2C161.906 286.125 161.88 286.029 161.88 285.912V285.208C161.88 285.112 161.906 285.037 161.96 284.984C162.024 284.92 162.104 284.888 162.2 284.888C162.296 284.888 162.424 284.941 162.584 285.048L167.624 288.504C167.794 288.632 167.912 288.749 167.976 288.856C168.05 288.963 168.088 289.091 168.088 289.24V289.512C168.088 289.661 168.05 289.789 167.976 289.896C167.901 290.003 167.784 290.115 167.624 290.232L162.584 293.704C162.424 293.811 162.296 293.864 162.2 293.864ZM102.142 320.864C102.046 320.864 101.918 320.811 101.758 320.704L96.7175 317.232C96.5575 317.115 96.4402 317.003 96.3655 316.896C96.2908 316.789 96.2535 316.661 96.2535 316.512V316.24C96.2535 316.091 96.2855 315.963 96.3495 315.856C96.4242 315.749 96.5468 315.632 96.7175 315.504L101.758 312.048C101.918 311.941 102.046 311.888 102.142 311.888C102.238 311.888 102.312 311.92 102.366 311.984C102.43 312.037 102.462 312.112 102.462 312.208V312.912C102.462 313.029 102.43 313.125 102.366 313.2C102.312 313.275 102.222 313.355 102.094 313.44L97.8055 316.368L102.094 319.296C102.232 319.392 102.328 319.477 102.382 319.552C102.435 319.627 102.462 319.723 102.462 319.84V320.544C102.462 320.64 102.43 320.72 102.366 320.784C102.312 320.837 102.238 320.864 102.142 320.864ZM106.081 325.04C105.974 325.04 105.883 325.003 105.809 324.928C105.745 324.864 105.713 324.779 105.713 324.672V314.048C105.713 313.941 105.745 313.856 105.809 313.792C105.883 313.717 105.974 313.68 106.081 313.68H106.817C106.923 313.68 107.009 313.717 107.073 313.792C107.147 313.856 107.185 313.941 107.185 314.048V314.752C107.782 313.931 108.657 313.52 109.809 313.52C110.929 313.52 111.766 313.872 112.321 314.576C112.886 315.28 113.19 316.187 113.233 317.296C113.243 317.413 113.249 317.595 113.249 317.84C113.249 318.085 113.243 318.267 113.233 318.384C113.19 319.483 112.886 320.389 112.321 321.104C111.755 321.808 110.918 322.16 109.809 322.16C108.699 322.16 107.835 321.76 107.217 320.96V324.672C107.217 324.779 107.185 324.864 107.121 324.928C107.057 325.003 106.971 325.04 106.865 325.04H106.081ZM109.473 320.864C110.23 320.864 110.779 320.629 111.121 320.16C111.473 319.691 111.665 319.072 111.697 318.304C111.707 318.197 111.713 318.043 111.713 317.84C111.713 315.824 110.966 314.816 109.473 314.816C108.737 314.816 108.182 315.061 107.809 315.552C107.446 316.032 107.249 316.608 107.217 317.28L107.201 317.888L107.217 318.512C107.238 319.141 107.441 319.691 107.825 320.16C108.209 320.629 108.758 320.864 109.473 320.864ZM116.412 320.864C116.316 320.864 116.236 320.837 116.172 320.784C116.118 320.72 116.092 320.64 116.092 320.544V319.84C116.092 319.723 116.118 319.627 116.172 319.552C116.225 319.477 116.321 319.392 116.46 319.296L120.732 316.368L116.46 313.44C116.321 313.355 116.225 313.275 116.172 313.2C116.118 313.125 116.092 313.029 116.092 312.912V312.208C116.092 312.112 116.118 312.037 116.172 311.984C116.236 311.92 116.316 311.888 116.412 311.888C116.508 311.888 116.636 311.941 116.796 312.048L121.836 315.504C122.006 315.632 122.124 315.749 122.188 315.856C122.262 315.963 122.3 316.091 122.3 316.24V316.512C122.3 316.661 122.262 316.789 122.188 316.896C122.113 317.003 121.996 317.115 121.836 317.232L116.796 320.704C116.636 320.811 116.508 320.864 116.412 320.864ZM177.485 320.864C177.389 320.864 177.261 320.811 177.101 320.704L172.061 317.232C171.901 317.115 171.783 317.003 171.709 316.896C171.634 316.789 171.597 316.661 171.597 316.512V316.24C171.597 316.091 171.629 315.963 171.693 315.856C171.767 315.749 171.89 315.632 172.061 315.504L177.101 312.048C177.261 311.941 177.389 311.888 177.485 311.888C177.581 311.888 177.655 311.92 177.709 311.984C177.773 312.037 177.805 312.112 177.805 312.208V312.912C177.805 313.029 177.773 313.125 177.709 313.2C177.655 313.275 177.565 313.355 177.437 313.44L173.149 316.368L177.437 319.296C177.575 319.392 177.671 319.477 177.725 319.552C177.778 319.627 177.805 319.723 177.805 319.84V320.544C177.805 320.64 177.773 320.72 177.709 320.784C177.655 320.837 177.581 320.864 177.485 320.864ZM180.592 323.344C180.506 323.344 180.432 323.312 180.368 323.248C180.304 323.184 180.272 323.109 180.272 323.024C180.272 322.981 180.288 322.917 180.32 322.832L185.792 309.712C185.877 309.52 186.016 309.424 186.208 309.424H186.832C186.917 309.424 186.992 309.456 187.056 309.52C187.12 309.584 187.152 309.659 187.152 309.744C187.152 309.819 187.141 309.883 187.12 309.936L181.632 323.056C181.546 323.248 181.408 323.344 181.216 323.344H180.592ZM189.54 325.04C189.433 325.04 189.343 325.003 189.268 324.928C189.204 324.864 189.172 324.779 189.172 324.672V314.048C189.172 313.941 189.204 313.856 189.268 313.792C189.343 313.717 189.433 313.68 189.54 313.68H190.276C190.383 313.68 190.468 313.717 190.532 313.792C190.607 313.856 190.644 313.941 190.644 314.048V314.752C191.241 313.931 192.116 313.52 193.268 313.52C194.388 313.52 195.225 313.872 195.78 314.576C196.345 315.28 196.649 316.187 196.692 317.296C196.703 317.413 196.708 317.595 196.708 317.84C196.708 318.085 196.703 318.267 196.692 318.384C196.649 319.483 196.345 320.389 195.78 321.104C195.215 321.808 194.377 322.16 193.268 322.16C192.159 322.16 191.295 321.76 190.676 320.96V324.672C190.676 324.779 190.644 324.864 190.58 324.928C190.516 325.003 190.431 325.04 190.324 325.04H189.54ZM192.932 320.864C193.689 320.864 194.239 320.629 194.58 320.16C194.932 319.691 195.124 319.072 195.156 318.304C195.167 318.197 195.172 318.043 195.172 317.84C195.172 315.824 194.425 314.816 192.932 314.816C192.196 314.816 191.641 315.061 191.268 315.552C190.905 316.032 190.708 316.608 190.676 317.28L190.66 317.888L190.676 318.512C190.697 319.141 190.9 319.691 191.284 320.16C191.668 320.629 192.217 320.864 192.932 320.864ZM199.871 320.864C199.775 320.864 199.695 320.837 199.631 320.784C199.578 320.72 199.551 320.64 199.551 320.544V319.84C199.551 319.723 199.578 319.627 199.631 319.552C199.684 319.477 199.78 319.392 199.919 319.296L204.191 316.368L199.919 313.44C199.78 313.355 199.684 313.275 199.631 313.2C199.578 313.125 199.551 313.029 199.551 312.912V312.208C199.551 312.112 199.578 312.037 199.631 311.984C199.695 311.92 199.775 311.888 199.871 311.888C199.967 311.888 200.095 311.941 200.255 312.048L205.295 315.504C205.466 315.632 205.583 315.749 205.647 315.856C205.722 315.963 205.759 316.091 205.759 316.24V316.512C205.759 316.661 205.722 316.789 205.647 316.896C205.572 317.003 205.455 317.115 205.295 317.232L200.255 320.704C200.095 320.811 199.967 320.864 199.871 320.864ZM119.924 347.864C119.828 347.864 119.7 347.811 119.54 347.704L114.5 344.232C114.34 344.115 114.223 344.003 114.148 343.896C114.074 343.789 114.036 343.661 114.036 343.512V343.24C114.036 343.091 114.068 342.963 114.132 342.856C114.207 342.749 114.33 342.632 114.5 342.504L119.54 339.048C119.7 338.941 119.828 338.888 119.924 338.888C120.02 338.888 120.095 338.92 120.148 338.984C120.212 339.037 120.244 339.112 120.244 339.208V339.912C120.244 340.029 120.212 340.125 120.148 340.2C120.095 340.275 120.004 340.355 119.876 340.44L115.588 343.368L119.876 346.296C120.015 346.392 120.111 346.477 120.164 346.552C120.218 346.627 120.244 346.723 120.244 346.84V347.544C120.244 347.64 120.212 347.72 120.148 347.784C120.095 347.837 120.02 347.864 119.924 347.864ZM123.031 350.344C122.946 350.344 122.871 350.312 122.807 350.248C122.743 350.184 122.711 350.109 122.711 350.024C122.711 349.981 122.727 349.917 122.759 349.832L128.231 336.712C128.317 336.52 128.455 336.424 128.647 336.424H129.271C129.357 336.424 129.431 336.456 129.495 336.52C129.559 336.584 129.591 336.659 129.591 336.744C129.591 336.819 129.581 336.883 129.559 336.936L124.071 350.056C123.986 350.248 123.847 350.344 123.655 350.344H123.031ZM132.382 347.864C132.286 347.864 132.206 347.837 132.142 347.784C132.089 347.72 132.062 347.64 132.062 347.544V346.84C132.062 346.723 132.089 346.627 132.142 346.552C132.195 346.477 132.291 346.392 132.43 346.296L136.702 343.368L132.43 340.44C132.291 340.355 132.195 340.275 132.142 340.2C132.089 340.125 132.062 340.029 132.062 339.912V339.208C132.062 339.112 132.089 339.037 132.142 338.984C132.206 338.92 132.286 338.888 132.382 338.888C132.478 338.888 132.606 338.941 132.766 339.048L137.806 342.504C137.977 342.632 138.094 342.749 138.158 342.856C138.233 342.963 138.27 343.091 138.27 343.24V343.512C138.27 343.661 138.233 343.789 138.158 343.896C138.083 344.003 137.966 344.115 137.806 344.232L132.766 347.704C132.606 347.811 132.478 347.864 132.382 347.864ZM145.089 349.16C143.937 349.16 143.063 348.76 142.465 347.96V348.632C142.465 348.739 142.428 348.829 142.353 348.904C142.289 348.968 142.204 349 142.097 349H141.361C141.255 349 141.164 348.968 141.089 348.904C141.025 348.829 140.993 348.739 140.993 348.632V338.008C140.993 337.901 141.025 337.816 141.089 337.752C141.164 337.677 141.255 337.64 141.361 337.64H142.145C142.252 337.64 142.337 337.677 142.401 337.752C142.465 337.816 142.497 337.901 142.497 338.008V341.688C143.127 340.909 143.991 340.52 145.089 340.52C146.199 340.52 147.036 340.888 147.601 341.624C148.167 342.349 148.471 343.261 148.513 344.36C148.524 344.477 148.529 344.637 148.529 344.84C148.529 345.043 148.524 345.203 148.513 345.32C148.471 346.429 148.167 347.347 147.601 348.072C147.036 348.797 146.199 349.16 145.089 349.16ZM144.753 347.864C145.511 347.864 146.06 347.629 146.401 347.16C146.753 346.691 146.945 346.072 146.977 345.304C146.988 345.197 146.993 345.043 146.993 344.84C146.993 342.824 146.247 341.816 144.753 341.816C144.039 341.816 143.489 342.051 143.105 342.52C142.721 342.989 142.519 343.539 142.497 344.168L142.481 344.792L142.497 345.4C142.529 346.072 142.727 346.653 143.089 347.144C143.463 347.624 144.017 347.864 144.753 347.864ZM154.861 349.16C153.688 349.16 152.776 348.829 152.125 348.168C151.485 347.507 151.144 346.627 151.101 345.528L151.085 344.84L151.101 344.152C151.144 343.064 151.49 342.189 152.141 341.528C152.792 340.856 153.698 340.52 154.861 340.52C156.024 340.52 156.93 340.856 157.581 341.528C158.232 342.189 158.578 343.064 158.621 344.152C158.632 344.269 158.637 344.499 158.637 344.84C158.637 345.181 158.632 345.411 158.621 345.528C158.578 346.627 158.232 347.507 157.581 348.168C156.941 348.829 156.034 349.16 154.861 349.16ZM154.861 347.928C155.533 347.928 156.061 347.715 156.445 347.288C156.84 346.861 157.053 346.248 157.085 345.448C157.096 345.341 157.101 345.139 157.101 344.84C157.101 344.541 157.096 344.339 157.085 344.232C157.053 343.432 156.84 342.819 156.445 342.392C156.061 341.965 155.533 341.752 154.861 341.752C154.189 341.752 153.656 341.965 153.261 342.392C152.866 342.819 152.658 343.432 152.637 344.232L152.621 344.84L152.637 345.448C152.658 346.248 152.866 346.861 153.261 347.288C153.656 347.715 154.189 347.928 154.861 347.928ZM164.641 349.16C163.531 349.16 162.694 348.797 162.129 348.072C161.563 347.347 161.265 346.429 161.233 345.32L161.217 344.84L161.233 344.36C161.265 343.261 161.563 342.349 162.129 341.624C162.694 340.888 163.531 340.52 164.641 340.52C165.739 340.52 166.603 340.909 167.233 341.688V338.008C167.233 337.901 167.265 337.816 167.329 337.752C167.403 337.677 167.494 337.64 167.601 337.64H168.369C168.475 337.64 168.561 337.677 168.625 337.752C168.699 337.816 168.737 337.901 168.737 338.008V348.632C168.737 348.739 168.699 348.829 168.625 348.904C168.561 348.968 168.475 349 168.369 349H167.649C167.542 349 167.451 348.968 167.377 348.904C167.313 348.829 167.281 348.739 167.281 348.632V347.96C166.662 348.76 165.782 349.16 164.641 349.16ZM164.977 347.864C165.713 347.864 166.262 347.624 166.625 347.144C166.998 346.653 167.201 346.072 167.233 345.4C167.243 345.283 167.249 345.08 167.249 344.792C167.249 344.493 167.243 344.285 167.233 344.168C167.211 343.539 167.009 342.989 166.625 342.52C166.241 342.051 165.691 341.816 164.977 341.816C164.219 341.816 163.665 342.051 163.313 342.52C162.971 342.989 162.785 343.608 162.753 344.376L162.737 344.84C162.737 346.856 163.483 347.864 164.977 347.864ZM173.532 352.04C173.447 352.04 173.372 352.008 173.308 351.944C173.244 351.88 173.212 351.805 173.212 351.72C173.212 351.645 173.239 351.549 173.292 351.432L174.524 348.504L171.468 341.288C171.415 341.149 171.388 341.059 171.388 341.016C171.388 340.92 171.42 340.84 171.484 340.776C171.548 340.712 171.628 340.68 171.724 340.68H172.508C172.679 340.68 172.807 340.771 172.892 340.952L175.324 346.776L177.82 340.952C177.906 340.771 178.039 340.68 178.22 340.68H178.972C179.068 340.68 179.148 340.712 179.212 340.776C179.276 340.84 179.308 340.915 179.308 341C179.308 341.032 179.282 341.128 179.228 341.288L174.684 351.768C174.599 351.949 174.466 352.04 174.284 352.04H173.532ZM182.088 347.864C181.992 347.864 181.912 347.837 181.848 347.784C181.795 347.72 181.768 347.64 181.768 347.544V346.84C181.768 346.723 181.795 346.627 181.848 346.552C181.902 346.477 181.998 346.392 182.136 346.296L186.408 343.368L182.136 340.44C181.998 340.355 181.902 340.275 181.848 340.2C181.795 340.125 181.768 340.029 181.768 339.912V339.208C181.768 339.112 181.795 339.037 181.848 338.984C181.912 338.92 181.992 338.888 182.088 338.888C182.184 338.888 182.312 338.941 182.472 339.048L187.512 342.504C187.683 342.632 187.8 342.749 187.864 342.856C187.939 342.963 187.976 343.091 187.976 343.24V343.512C187.976 343.661 187.939 343.789 187.864 343.896C187.79 344.003 187.672 344.115 187.512 344.232L182.472 347.704C182.312 347.811 182.184 347.864 182.088 347.864ZM125.857 401.864C125.761 401.864 125.633 401.811 125.473 401.704L120.433 398.232C120.273 398.115 120.156 398.003 120.081 397.896C120.007 397.789 119.969 397.661 119.969 397.512V397.24C119.969 397.091 120.001 396.963 120.065 396.856C120.14 396.749 120.263 396.632 120.433 396.504L125.473 393.048C125.633 392.941 125.761 392.888 125.857 392.888C125.953 392.888 126.028 392.92 126.081 392.984C126.145 393.037 126.177 393.112 126.177 393.208V393.912C126.177 394.029 126.145 394.125 126.081 394.2C126.028 394.275 125.937 394.355 125.809 394.44L121.521 397.368L125.809 400.296C125.948 400.392 126.044 400.477 126.097 400.552C126.151 400.627 126.177 400.723 126.177 400.84V401.544C126.177 401.64 126.145 401.72 126.081 401.784C126.028 401.837 125.953 401.864 125.857 401.864ZM128.964 404.344C128.879 404.344 128.804 404.312 128.74 404.248C128.676 404.184 128.644 404.109 128.644 404.024C128.644 403.981 128.66 403.917 128.692 403.832L134.164 390.712C134.25 390.52 134.388 390.424 134.58 390.424H135.204C135.29 390.424 135.364 390.456 135.428 390.52C135.492 390.584 135.524 390.659 135.524 390.744C135.524 390.819 135.514 390.883 135.492 390.936L130.004 404.056C129.919 404.248 129.78 404.344 129.588 404.344H128.964ZM138.475 403C138.369 403 138.278 402.968 138.203 402.904C138.139 402.829 138.107 402.739 138.107 402.632V392.008C138.107 391.901 138.139 391.816 138.203 391.752C138.278 391.677 138.369 391.64 138.475 391.64H139.275C139.382 391.64 139.467 391.677 139.531 391.752C139.606 391.816 139.643 391.901 139.643 392.008V395.736C139.953 395.341 140.315 395.043 140.731 394.84C141.147 394.627 141.665 394.52 142.283 394.52C143.307 394.52 144.102 394.851 144.667 395.512C145.243 396.163 145.531 397.032 145.531 398.12V402.632C145.531 402.739 145.494 402.829 145.419 402.904C145.355 402.968 145.27 403 145.163 403H144.363C144.257 403 144.166 402.968 144.091 402.904C144.027 402.829 143.995 402.739 143.995 402.632V398.2C143.995 397.443 143.809 396.856 143.435 396.44C143.073 396.024 142.545 395.816 141.851 395.816C141.179 395.816 140.641 396.029 140.235 396.456C139.841 396.872 139.643 397.453 139.643 398.2V402.632C139.643 402.739 139.606 402.829 139.531 402.904C139.467 402.968 139.382 403 139.275 403H138.475ZM151.94 403C150.254 403 149.412 402.061 149.412 400.184V395.96H148.164C148.057 395.96 147.966 395.928 147.892 395.864C147.828 395.789 147.796 395.699 147.796 395.592V395.048C147.796 394.941 147.828 394.856 147.892 394.792C147.966 394.717 148.057 394.68 148.164 394.68H149.412V392.008C149.412 391.901 149.444 391.816 149.508 391.752C149.582 391.677 149.673 391.64 149.78 391.64H150.532C150.638 391.64 150.724 391.677 150.788 391.752C150.862 391.816 150.9 391.901 150.9 392.008V394.68H152.884C152.99 394.68 153.076 394.717 153.14 394.792C153.214 394.856 153.252 394.941 153.252 395.048V395.592C153.252 395.699 153.214 395.789 153.14 395.864C153.076 395.928 152.99 395.96 152.884 395.96H150.9V400.072C150.9 400.605 150.99 401.011 151.172 401.288C151.353 401.555 151.652 401.688 152.068 401.688H153.044C153.15 401.688 153.236 401.725 153.3 401.8C153.374 401.864 153.412 401.949 153.412 402.056V402.632C153.412 402.739 153.374 402.829 153.3 402.904C153.236 402.968 153.15 403 153.044 403H151.94ZM156.27 403C156.163 403 156.072 402.968 155.998 402.904C155.934 402.829 155.902 402.739 155.902 402.632V395.048C155.902 394.941 155.934 394.856 155.998 394.792C156.072 394.717 156.163 394.68 156.27 394.68H156.99C157.096 394.68 157.182 394.717 157.246 394.792C157.32 394.856 157.358 394.941 157.358 395.048V395.608C157.912 394.883 158.686 394.52 159.678 394.52C160.862 394.52 161.699 395.011 162.19 395.992C162.446 395.544 162.808 395.187 163.278 394.92C163.747 394.653 164.275 394.52 164.862 394.52C165.736 394.52 166.451 394.819 167.006 395.416C167.56 396.013 167.838 396.877 167.838 398.008V402.632C167.838 402.739 167.8 402.829 167.726 402.904C167.662 402.968 167.576 403 167.47 403H166.718C166.611 403 166.52 402.968 166.446 402.904C166.382 402.829 166.35 402.739 166.35 402.632V398.152C166.35 397.32 166.174 396.723 165.822 396.36C165.48 395.997 165.027 395.816 164.462 395.816C163.96 395.816 163.528 396.003 163.166 396.376C162.803 396.739 162.622 397.331 162.622 398.152V402.632C162.622 402.739 162.584 402.829 162.51 402.904C162.446 402.968 162.36 403 162.254 403H161.502C161.395 403 161.304 402.968 161.23 402.904C161.166 402.829 161.134 402.739 161.134 402.632V398.152C161.134 397.32 160.952 396.723 160.59 396.36C160.238 395.997 159.79 395.816 159.246 395.816C158.744 395.816 158.312 396.003 157.95 396.376C157.587 396.739 157.406 397.325 157.406 398.136V402.632C157.406 402.739 157.368 402.829 157.294 402.904C157.23 402.968 157.144 403 157.038 403H156.27ZM171.465 403C171.358 403 171.267 402.968 171.193 402.904C171.129 402.829 171.097 402.739 171.097 402.632V392.008C171.097 391.901 171.129 391.816 171.193 391.752C171.267 391.677 171.358 391.64 171.465 391.64H172.217C172.323 391.64 172.409 391.677 172.473 391.752C172.547 391.816 172.585 391.901 172.585 392.008V402.632C172.585 402.739 172.547 402.829 172.473 402.904C172.409 402.968 172.323 403 172.217 403H171.465ZM176.155 401.864C176.059 401.864 175.979 401.837 175.915 401.784C175.862 401.72 175.835 401.64 175.835 401.544V400.84C175.835 400.723 175.862 400.627 175.915 400.552C175.969 400.477 176.065 400.392 176.203 400.296L180.475 397.368L176.203 394.44C176.065 394.355 175.969 394.275 175.915 394.2C175.862 394.125 175.835 394.029 175.835 393.912V393.208C175.835 393.112 175.862 393.037 175.915 392.984C175.979 392.92 176.059 392.888 176.155 392.888C176.251 392.888 176.379 392.941 176.539 393.048L181.579 396.504C181.75 396.632 181.867 396.749 181.931 396.856C182.006 396.963 182.043 397.091 182.043 397.24V397.512C182.043 397.661 182.006 397.789 181.931 397.896C181.857 398.003 181.739 398.115 181.579 398.232L176.539 401.704C176.379 401.811 176.251 401.864 176.155 401.864Z" fill="#E5E5E5"/>
<path d="M119.729 268.16C118.716 268.16 117.932 267.835 117.377 267.184C116.823 266.523 116.545 265.648 116.545 264.56V260.048C116.545 259.941 116.577 259.856 116.641 259.792C116.716 259.717 116.807 259.68 116.913 259.68H117.713C117.82 259.68 117.905 259.717 117.969 259.792C118.044 259.856 118.081 259.941 118.081 260.048V264.48C118.081 266.069 118.775 266.864 120.161 266.864C120.833 266.864 121.367 266.656 121.761 266.24C122.156 265.813 122.353 265.227 122.353 264.48V260.048C122.353 259.941 122.385 259.856 122.449 259.792C122.524 259.717 122.615 259.68 122.721 259.68H123.521C123.628 259.68 123.713 259.717 123.777 259.792C123.841 259.856 123.873 259.941 123.873 260.048V267.632C123.873 267.739 123.841 267.829 123.777 267.904C123.713 267.968 123.628 268 123.521 268H122.769C122.663 268 122.572 267.968 122.497 267.904C122.433 267.829 122.401 267.739 122.401 267.632V266.928C122.103 267.333 121.74 267.643 121.313 267.856C120.887 268.059 120.359 268.16 119.729 268.16ZM127.45 258.128C127.344 258.128 127.253 258.096 127.178 258.032C127.114 257.957 127.082 257.867 127.082 257.76V256.896C127.082 256.789 127.114 256.699 127.178 256.624C127.253 256.549 127.344 256.512 127.45 256.512H128.458C128.565 256.512 128.656 256.549 128.73 256.624C128.805 256.699 128.842 256.789 128.842 256.896V257.76C128.842 257.867 128.805 257.957 128.73 258.032C128.656 258.096 128.565 258.128 128.458 258.128H127.45ZM127.578 268C127.472 268 127.381 267.968 127.306 267.904C127.242 267.829 127.21 267.739 127.21 267.632V260.048C127.21 259.941 127.242 259.856 127.306 259.792C127.381 259.717 127.472 259.68 127.578 259.68H128.346C128.453 259.68 128.538 259.717 128.602 259.792C128.677 259.856 128.714 259.941 128.714 260.048V267.632C128.714 267.739 128.677 267.829 128.602 267.904C128.538 267.968 128.453 268 128.346 268H127.578ZM131.597 269.344C131.512 269.344 131.437 269.312 131.373 269.248C131.309 269.184 131.277 269.109 131.277 269.024C131.277 268.981 131.293 268.917 131.325 268.832L136.797 255.712C136.883 255.52 137.021 255.424 137.213 255.424H137.837C137.923 255.424 137.997 255.456 138.061 255.52C138.125 255.584 138.157 255.659 138.157 255.744C138.157 255.819 138.147 255.883 138.125 255.936L132.637 269.056C132.552 269.248 132.413 269.344 132.221 269.344H131.597ZM143.312 268.16C142.299 268.16 141.515 267.835 140.96 267.184C140.406 266.523 140.128 265.648 140.128 264.56V260.048C140.128 259.941 140.16 259.856 140.224 259.792C140.299 259.717 140.39 259.68 140.496 259.68H141.296C141.403 259.68 141.488 259.717 141.552 259.792C141.627 259.856 141.664 259.941 141.664 260.048V264.48C141.664 266.069 142.358 266.864 143.744 266.864C144.416 266.864 144.95 266.656 145.344 266.24C145.739 265.813 145.936 265.227 145.936 264.48V260.048C145.936 259.941 145.968 259.856 146.032 259.792C146.107 259.717 146.198 259.68 146.304 259.68H147.104C147.211 259.68 147.296 259.717 147.36 259.792C147.424 259.856 147.456 259.941 147.456 260.048V267.632C147.456 267.739 147.424 267.829 147.36 267.904C147.296 267.968 147.211 268 147.104 268H146.352C146.246 268 146.155 267.968 146.08 267.904C146.016 267.829 145.984 267.739 145.984 267.632V266.928C145.686 267.333 145.323 267.643 144.896 267.856C144.47 268.059 143.942 268.16 143.312 268.16ZM150.409 268C150.324 268 150.244 267.968 150.169 267.904C150.105 267.84 150.073 267.76 150.073 267.664C150.073 267.568 150.111 267.472 150.185 267.376L152.969 263.744L150.361 260.304C150.287 260.219 150.249 260.123 150.249 260.016C150.249 259.92 150.281 259.84 150.345 259.776C150.409 259.712 150.489 259.68 150.585 259.68H151.401C151.561 259.68 151.7 259.765 151.817 259.936L153.945 262.704L156.073 259.952C156.137 259.867 156.196 259.803 156.249 259.76C156.313 259.707 156.393 259.68 156.489 259.68H157.273C157.369 259.68 157.449 259.712 157.513 259.776C157.577 259.84 157.609 259.92 157.609 260.016C157.609 260.123 157.572 260.219 157.497 260.304L154.857 263.776L157.641 267.376C157.716 267.472 157.753 267.568 157.753 267.664C157.753 267.76 157.721 267.84 157.657 267.904C157.593 267.968 157.513 268 157.417 268H156.569C156.409 268 156.271 267.92 156.153 267.76L153.913 264.832L151.641 267.76C151.577 267.835 151.513 267.893 151.449 267.936C151.396 267.979 151.321 268 151.225 268H150.409ZM168.3 268.16C167.191 268.16 166.354 267.797 165.788 267.072C165.223 266.347 164.924 265.429 164.892 264.32L164.876 263.84L164.892 263.36C164.924 262.261 165.223 261.349 165.788 260.624C166.354 259.888 167.191 259.52 168.3 259.52C169.399 259.52 170.263 259.909 170.892 260.688V257.008C170.892 256.901 170.924 256.816 170.988 256.752C171.063 256.677 171.154 256.64 171.26 256.64H172.028C172.135 256.64 172.22 256.677 172.284 256.752C172.359 256.816 172.396 256.901 172.396 257.008V267.632C172.396 267.739 172.359 267.829 172.284 267.904C172.22 267.968 172.135 268 172.028 268H171.308C171.202 268 171.111 267.968 171.036 267.904C170.972 267.829 170.94 267.739 170.94 267.632V266.96C170.322 267.76 169.442 268.16 168.3 268.16ZM168.636 266.864C169.372 266.864 169.922 266.624 170.284 266.144C170.658 265.653 170.86 265.072 170.892 264.4C170.903 264.283 170.908 264.08 170.908 263.792C170.908 263.493 170.903 263.285 170.892 263.168C170.871 262.539 170.668 261.989 170.284 261.52C169.9 261.051 169.351 260.816 168.636 260.816C167.879 260.816 167.324 261.051 166.972 261.52C166.631 261.989 166.444 262.608 166.412 263.376L166.396 263.84C166.396 265.856 167.143 266.864 168.636 266.864ZM179.064 268.16C177.965 268.16 177.085 267.824 176.424 267.152C175.773 266.469 175.416 265.541 175.352 264.368L175.336 263.824L175.352 263.296C175.427 262.144 175.789 261.227 176.44 260.544C177.101 259.861 177.971 259.52 179.048 259.52C180.232 259.52 181.149 259.899 181.8 260.656C182.451 261.403 182.776 262.416 182.776 263.696V263.968C182.776 264.075 182.739 264.165 182.664 264.24C182.6 264.304 182.515 264.336 182.408 264.336H176.872V264.48C176.904 265.173 177.112 265.765 177.496 266.256C177.891 266.736 178.408 266.976 179.048 266.976C179.539 266.976 179.939 266.88 180.248 266.688C180.568 266.485 180.803 266.277 180.952 266.064C181.048 265.936 181.117 265.861 181.16 265.84C181.213 265.808 181.304 265.792 181.432 265.792H182.216C182.312 265.792 182.392 265.819 182.456 265.872C182.52 265.925 182.552 266 182.552 266.096C182.552 266.331 182.403 266.613 182.104 266.944C181.816 267.275 181.405 267.563 180.872 267.808C180.349 268.043 179.747 268.16 179.064 268.16ZM181.256 263.232V263.184C181.256 262.448 181.053 261.851 180.648 261.392C180.253 260.923 179.72 260.688 179.048 260.688C178.376 260.688 177.843 260.923 177.448 261.392C177.064 261.851 176.872 262.448 176.872 263.184V263.232H181.256ZM188.529 268.16C187.782 268.16 187.153 268.043 186.641 267.808C186.14 267.563 185.761 267.285 185.505 266.976C185.26 266.667 185.137 266.411 185.137 266.208C185.137 266.101 185.174 266.021 185.249 265.968C185.334 265.904 185.42 265.872 185.505 265.872H186.225C186.332 265.872 186.428 265.925 186.513 266.032C186.769 266.331 187.046 266.565 187.345 266.736C187.644 266.907 188.044 266.992 188.545 266.992C189.1 266.992 189.548 266.885 189.889 266.672C190.241 266.448 190.417 266.144 190.417 265.76C190.417 265.504 190.342 265.296 190.193 265.136C190.054 264.965 189.809 264.821 189.457 264.704C189.116 264.576 188.604 264.437 187.921 264.288C186.993 264.085 186.332 263.792 185.937 263.408C185.553 263.024 185.361 262.528 185.361 261.92C185.361 261.515 185.478 261.131 185.713 260.768C185.958 260.395 186.31 260.096 186.769 259.872C187.238 259.637 187.798 259.52 188.449 259.52C189.132 259.52 189.713 259.632 190.193 259.856C190.673 260.08 191.03 260.347 191.265 260.656C191.51 260.955 191.633 261.205 191.633 261.408C191.633 261.504 191.596 261.584 191.521 261.648C191.457 261.712 191.377 261.744 191.281 261.744H190.609C190.481 261.744 190.374 261.691 190.289 261.584C190.118 261.381 189.969 261.227 189.841 261.12C189.724 261.003 189.548 260.901 189.313 260.816C189.089 260.731 188.801 260.688 188.449 260.688C187.937 260.688 187.542 260.8 187.265 261.024C186.988 261.237 186.849 261.52 186.849 261.872C186.849 262.096 186.908 262.288 187.025 262.448C187.142 262.597 187.366 262.736 187.697 262.864C188.038 262.992 188.529 263.125 189.169 263.264C190.182 263.477 190.897 263.787 191.313 264.192C191.74 264.587 191.953 265.093 191.953 265.712C191.953 266.171 191.82 266.587 191.553 266.96C191.286 267.333 190.892 267.627 190.369 267.84C189.857 268.053 189.244 268.16 188.529 268.16ZM195.005 258.128C194.899 258.128 194.808 258.096 194.733 258.032C194.669 257.957 194.637 257.867 194.637 257.76V256.896C194.637 256.789 194.669 256.699 194.733 256.624C194.808 256.549 194.899 256.512 195.005 256.512H196.013C196.12 256.512 196.211 256.549 196.285 256.624C196.36 256.699 196.397 256.789 196.397 256.896V257.76C196.397 257.867 196.36 257.957 196.285 258.032C196.211 258.096 196.12 258.128 196.013 258.128H195.005ZM195.133 268C195.027 268 194.936 267.968 194.861 267.904C194.797 267.829 194.765 267.739 194.765 267.632V260.048C194.765 259.941 194.797 259.856 194.861 259.792C194.936 259.717 195.027 259.68 195.133 259.68H195.901C196.008 259.68 196.093 259.717 196.157 259.792C196.232 259.856 196.269 259.941 196.269 260.048V267.632C196.269 267.739 196.232 267.829 196.157 267.904C196.093 267.968 196.008 268 195.901 268H195.133ZM203.008 271.52C202.134 271.52 201.43 271.371 200.896 271.072C200.363 270.784 199.984 270.453 199.76 270.08C199.536 269.707 199.414 269.371 199.392 269.072C199.382 268.965 199.414 268.875 199.488 268.8C199.574 268.725 199.664 268.688 199.76 268.688H200.528C200.624 268.688 200.704 268.709 200.768 268.752C200.832 268.805 200.886 268.896 200.928 269.024C201.056 269.365 201.264 269.659 201.552 269.904C201.851 270.16 202.31 270.288 202.928 270.288C203.718 270.288 204.299 270.117 204.672 269.776C205.046 269.445 205.232 268.853 205.232 268V266.912C204.955 267.264 204.603 267.547 204.176 267.76C203.75 267.963 203.243 268.064 202.656 268.064C201.526 268.064 200.678 267.707 200.112 266.992C199.558 266.267 199.264 265.349 199.232 264.24L199.216 263.792L199.232 263.36C199.264 262.261 199.563 261.349 200.128 260.624C200.694 259.888 201.536 259.52 202.656 259.52C203.776 259.52 204.651 259.931 205.28 260.752V260.064C205.28 259.957 205.312 259.867 205.376 259.792C205.451 259.717 205.542 259.68 205.648 259.68H206.384C206.491 259.68 206.582 259.717 206.656 259.792C206.731 259.867 206.768 259.957 206.768 260.064V267.824C206.768 270.288 205.515 271.52 203.008 271.52ZM202.976 266.784C203.702 266.784 204.251 266.544 204.624 266.064C204.998 265.584 205.2 265.013 205.232 264.352C205.243 264.256 205.248 264.069 205.248 263.792C205.248 263.525 205.243 263.344 205.232 263.248C205.2 262.587 204.998 262.016 204.624 261.536C204.262 261.056 203.712 260.816 202.976 260.816C202.219 260.816 201.67 261.051 201.328 261.52C200.987 261.989 200.8 262.608 200.768 263.376L200.752 263.792L200.768 264.224C200.8 264.981 200.987 265.6 201.328 266.08C201.67 266.549 202.219 266.784 202.976 266.784ZM210.475 268C210.368 268 210.278 267.968 210.203 267.904C210.139 267.829 210.107 267.739 210.107 267.632V260.048C210.107 259.941 210.139 259.856 210.203 259.792C210.278 259.717 210.368 259.68 210.475 259.68H211.227C211.334 259.68 211.419 259.717 211.483 259.792C211.558 259.856 211.595 259.941 211.595 260.048V260.752C211.904 260.357 212.267 260.053 212.683 259.84C213.11 259.627 213.638 259.52 214.267 259.52C215.291 259.52 216.086 259.851 216.651 260.512C217.227 261.163 217.515 262.032 217.515 263.12V267.632C217.515 267.739 217.478 267.829 217.403 267.904C217.339 267.968 217.254 268 217.147 268H216.347C216.24 268 216.15 267.968 216.075 267.904C216.011 267.829 215.979 267.739 215.979 267.632V263.2C215.979 262.443 215.792 261.856 215.419 261.44C215.056 261.024 214.528 260.816 213.835 260.816C213.163 260.816 212.63 261.029 212.235 261.456C211.84 261.872 211.643 262.453 211.643 263.2V267.632C211.643 267.739 211.606 267.829 211.531 267.904C211.467 267.968 211.382 268 211.275 268H210.475Z" fill="#677AAA"/>
<path d="M130.257 322C130.15 322 130.06 321.968 129.985 321.904C129.921 321.829 129.889 321.739 129.889 321.632V314.064C129.889 313.957 129.921 313.867 129.985 313.792C130.06 313.717 130.15 313.68 130.257 313.68H130.993C131.1 313.68 131.19 313.717 131.265 313.792C131.34 313.867 131.377 313.957 131.377 314.064V314.768C131.814 314.043 132.561 313.68 133.617 313.68H134.241C134.348 313.68 134.433 313.717 134.497 313.792C134.572 313.856 134.609 313.941 134.609 314.048V314.704C134.609 314.811 134.572 314.896 134.497 314.96C134.433 315.024 134.348 315.056 134.241 315.056H133.281C132.705 315.056 132.252 315.227 131.921 315.568C131.59 315.899 131.425 316.352 131.425 316.928V321.632C131.425 321.739 131.388 321.829 131.313 321.904C131.238 321.968 131.148 322 131.041 322H130.257ZM140.099 322.16C139 322.16 138.12 321.824 137.459 321.152C136.808 320.469 136.451 319.541 136.387 318.368L136.371 317.824L136.387 317.296C136.462 316.144 136.824 315.227 137.475 314.544C138.136 313.861 139.006 313.52 140.083 313.52C141.267 313.52 142.184 313.899 142.835 314.656C143.486 315.403 143.811 316.416 143.811 317.696V317.968C143.811 318.075 143.774 318.165 143.699 318.24C143.635 318.304 143.55 318.336 143.443 318.336H137.907V318.48C137.939 319.173 138.147 319.765 138.531 320.256C138.926 320.736 139.443 320.976 140.083 320.976C140.574 320.976 140.974 320.88 141.283 320.688C141.603 320.485 141.838 320.277 141.987 320.064C142.083 319.936 142.152 319.861 142.195 319.84C142.248 319.808 142.339 319.792 142.467 319.792H143.251C143.347 319.792 143.427 319.819 143.491 319.872C143.555 319.925 143.587 320 143.587 320.096C143.587 320.331 143.438 320.613 143.139 320.944C142.851 321.275 142.44 321.563 141.907 321.808C141.384 322.043 140.782 322.16 140.099 322.16ZM142.291 317.232V317.184C142.291 316.448 142.088 315.851 141.683 315.392C141.288 314.923 140.755 314.688 140.083 314.688C139.411 314.688 138.878 314.923 138.483 315.392C138.099 315.851 137.907 316.448 137.907 317.184V317.232H142.291ZM147.068 325.04C146.961 325.04 146.871 325.003 146.796 324.928C146.732 324.864 146.7 324.779 146.7 324.672V314.048C146.7 313.941 146.732 313.856 146.796 313.792C146.871 313.717 146.961 313.68 147.068 313.68H147.804C147.911 313.68 147.996 313.717 148.06 313.792C148.135 313.856 148.172 313.941 148.172 314.048V314.752C148.769 313.931 149.644 313.52 150.796 313.52C151.916 313.52 152.753 313.872 153.308 314.576C153.873 315.28 154.177 316.187 154.22 317.296C154.231 317.413 154.236 317.595 154.236 317.84C154.236 318.085 154.231 318.267 154.22 318.384C154.177 319.483 153.873 320.389 153.308 321.104C152.743 321.808 151.905 322.16 150.796 322.16C149.687 322.16 148.823 321.76 148.204 320.96V324.672C148.204 324.779 148.172 324.864 148.108 324.928C148.044 325.003 147.959 325.04 147.852 325.04H147.068ZM150.46 320.864C151.217 320.864 151.767 320.629 152.108 320.16C152.46 319.691 152.652 319.072 152.684 318.304C152.695 318.197 152.7 318.043 152.7 317.84C152.7 315.824 151.953 314.816 150.46 314.816C149.724 314.816 149.169 315.061 148.796 315.552C148.433 316.032 148.236 316.608 148.204 317.28L148.188 317.888L148.204 318.512C148.225 319.141 148.428 319.691 148.812 320.16C149.196 320.629 149.745 320.864 150.46 320.864ZM160.583 322.16C159.41 322.16 158.498 321.829 157.847 321.168C157.207 320.507 156.866 319.627 156.823 318.528L156.807 317.84L156.823 317.152C156.866 316.064 157.213 315.189 157.863 314.528C158.514 313.856 159.421 313.52 160.583 313.52C161.746 313.52 162.653 313.856 163.303 314.528C163.954 315.189 164.301 316.064 164.343 317.152C164.354 317.269 164.359 317.499 164.359 317.84C164.359 318.181 164.354 318.411 164.343 318.528C164.301 319.627 163.954 320.507 163.303 321.168C162.663 321.829 161.757 322.16 160.583 322.16ZM160.583 320.928C161.255 320.928 161.783 320.715 162.167 320.288C162.562 319.861 162.775 319.248 162.807 318.448C162.818 318.341 162.823 318.139 162.823 317.84C162.823 317.541 162.818 317.339 162.807 317.232C162.775 316.432 162.562 315.819 162.167 315.392C161.783 314.965 161.255 314.752 160.583 314.752C159.911 314.752 159.378 314.965 158.983 315.392C158.589 315.819 158.381 316.432 158.359 317.232L158.343 317.84L158.359 318.448C158.381 319.248 158.589 319.861 158.983 320.288C159.378 320.715 159.911 320.928 160.583 320.928Z" fill="#5B944C"/>
</g>
</svg>
