<svg width="30" height="30" viewBox="0 0 30 30" fill="none" xmlns="http://www.w3.org/2000/svg">
<g opacity="0.8" clip-path="url(#clip0)">
<path d="M15 29.999C23.2843 29.999 30 23.2833 30 14.999C30 6.71475 23.2843 -0.000976562 15 -0.000976562C6.71573 -0.000976562 0 6.71475 0 14.999C0 23.2833 6.71573 29.999 15 29.999Z" fill="#3D75A9"/>
<path d="M23.9624 16.2067V22.3909H20.3769V16.6212C20.3769 15.1725 19.8593 14.1831 18.5611 14.1831C17.5704 14.1831 16.9819 14.8492 16.722 15.4941C16.6276 15.7246 16.6033 16.0447 16.6033 16.368V22.3906H13.0176C13.0176 22.3906 13.0657 12.6186 13.0176 11.6071H16.6035V13.1352C16.5963 13.1473 16.5862 13.159 16.5797 13.1705H16.6035V13.1352C17.08 12.4021 17.9298 11.3539 19.8349 11.3539C22.1938 11.3539 23.9624 12.8951 23.9624 16.2067ZM9.26665 6.40906C8.04014 6.40906 7.2377 7.21417 7.2377 8.27196C7.2377 9.30729 8.01687 10.1357 9.21959 10.1357H9.24285C10.4934 10.1357 11.271 9.30729 11.271 8.27196C11.2472 7.21417 10.4934 6.40906 9.26665 6.40906ZM7.45081 22.3909H11.0352V11.6071H7.45081V22.3909Z" fill="#F1F2F2"/>
</g>
<defs>
<clipPath id="clip0">
<rect width="30" height="30" fill="white"/>
</clipPath>
</defs>
</svg>
