<svg width="46" height="46" viewBox="0 0 46 46" fill="none" xmlns="http://www.w3.org/2000/svg">
<g opacity="0.8">
<path opacity="0.9" d="M23 46C35.7025 46 46 35.7025 46 23C46 10.2975 35.7025 0 23 0C10.2975 0 0 10.2975 0 23C0 35.7025 10.2975 46 23 46Z" fill="#333333"/>
<g opacity="0.9">
<path d="M22.9102 10.7812C24.977 10.4422 27.0689 10.2799 29.1633 10.2961C31.6986 10.1024 34.2171 10.8439 36.243 12.3805C36.9728 13.0477 37.5486 13.866 37.9303 14.7783C38.312 15.6906 38.4904 16.675 38.4531 17.6633C38.5006 18.6468 38.3519 19.63 38.0156 20.5554C37.6794 21.4809 37.1623 22.3302 36.4945 23.0539C35.4588 24.0163 34.2382 24.758 32.9068 25.2337C31.5754 25.7094 30.1611 25.9093 28.75 25.8211C27.8702 25.8478 26.9902 25.7755 26.1266 25.6055V35.7039H22.9102V10.7812ZM26.1625 22.9461C27.0478 23.1363 27.9526 23.2207 28.8578 23.1976C32.793 23.1976 35.1828 21.293 35.1828 17.807C35.1828 14.3211 32.8289 12.8656 29.2352 12.8656C28.2042 12.8426 27.1737 12.933 26.1625 13.1351V22.9461Z" fill="#F2F2F2"/>
<path d="M7.54688 22.1555H26.1445V24.8867H18.4359V35.686H15.1836V24.9406H7.54688V22.1555Z" fill="#F2F2F2"/>
</g>
</g>
</svg>
