<svg width="30" height="30" viewBox="0 0 30 30" fill="none" xmlns="http://www.w3.org/2000/svg">
<g opacity="0.8" clip-path="url(#clip0)">
<path d="M29.7105 20.4527C28.7066 18.5549 25.221 16.4971 25.0675 16.4072C24.6195 16.1522 24.1521 16.0172 23.7146 16.0172C23.0642 16.0172 22.5317 16.3152 22.2093 16.8571C21.6993 17.467 21.0669 18.18 20.9134 18.2905C19.7245 19.0959 18.7951 19.0049 17.7662 17.976L12.0238 12.2336C11.0014 11.2112 10.9074 10.2698 11.7083 9.08789C11.8203 8.9329 12.5327 8.30047 13.1427 7.79052C13.5316 7.55904 13.7986 7.21557 13.9151 6.79362C14.0711 6.23217 13.9561 5.57174 13.5891 4.9273C13.5026 4.77932 11.4448 1.29317 9.54702 0.289767C9.19306 0.102286 8.7946 0.0032959 8.39414 0.0032959C7.7352 0.0032959 7.11527 0.26027 6.64931 0.725724L5.38144 1.9941C3.37464 3.9999 2.64771 6.27417 3.22116 8.75242C3.69911 10.8182 5.09197 13.0165 7.36174 15.2863L14.7135 22.638C17.1603 25.0848 19.509 26.5006 21.7143 26.8676C21.1769 28.12 19.932 28.9994 18.4846 28.9994C16.9213 28.9994 15.5689 27.993 15.12 26.4956L14.668 24.9888C14.5785 24.6913 14.3095 24.4918 13.9991 24.4918C13.6886 24.4918 13.4196 24.6913 13.3301 24.9893L12.4987 27.7595L11.6678 24.9893C11.5783 24.6918 11.3093 24.4923 10.9989 24.4923C10.6884 24.4923 10.4194 24.6918 10.3299 24.9898L9.49903 27.7595L8.66811 24.9893C8.57862 24.6918 8.30965 24.4923 7.99918 24.4923C7.68871 24.4923 7.41973 24.6918 7.33024 24.9898L6.49933 27.7595L5.66841 24.9893C5.57892 24.6918 5.30995 24.4923 4.99948 24.4923C4.68901 24.4923 4.42003 24.6918 4.33054 24.9898L3.49963 27.7595L2.66871 24.9893C2.57922 24.6923 2.31025 24.4923 1.99978 24.4923C1.68931 24.4923 1.42034 24.6918 1.33084 24.9898L0.0209756 29.3559C-0.0580165 29.6198 0.0919685 29.8988 0.356442 29.9783C0.404437 29.9928 0.452932 29.9998 0.499928 29.9998C0.715406 29.9998 0.913886 29.8603 0.97888 29.6433L1.99978 26.2402L2.83069 29.0104C2.92019 29.3079 3.18916 29.5073 3.49963 29.5073C3.8101 29.5073 4.07907 29.3079 4.16856 29.0099L4.99948 26.2402L5.83039 29.0104C5.91989 29.3079 6.18886 29.5073 6.49933 29.5073C6.8098 29.5073 7.07877 29.3079 7.16826 29.0099L7.99918 26.2402L8.83009 29.0104C8.91959 29.3079 9.18856 29.5073 9.49903 29.5073C9.8095 29.5073 10.0785 29.3079 10.168 29.0099L10.9989 26.2402L11.8298 29.0104C11.9193 29.3079 12.1883 29.5073 12.4987 29.5073C12.8092 29.5073 13.0782 29.3079 13.1677 29.0099L13.9986 26.2397L14.1616 26.7831C14.7385 28.7074 16.4758 29.9998 18.4841 29.9998C20.4549 29.9998 22.1303 28.7279 22.7442 26.9641C22.7802 26.9646 22.8172 26.9681 22.8532 26.9681C22.8537 26.9681 22.8532 26.9681 22.8537 26.9681C24.714 26.9681 26.4473 26.1777 28.0062 24.6188L29.2745 23.351C30.045 22.5795 30.2205 21.4152 29.7105 20.4527Z" fill="#333333"/>
</g>
<defs>
<clipPath id="clip0">
<rect width="30" height="30" fill="white"/>
</clipPath>
</defs>
</svg>
